<svg width="50" height="50" viewBox="0 0 50 50" fill="none" xmlns="http://www.w3.org/2000/svg">
<g id="mdi:gift-outline">
<path id="Vector" d="M45.8335 25.0001V41.6668C45.8335 42.7718 45.3945 43.8316 44.6131 44.613C43.8317 45.3944 42.7719 45.8334 41.6668 45.8334H8.3335C7.22843 45.8334 6.16862 45.3944 5.38722 44.613C4.60582 43.8316 4.16683 42.7718 4.16683 41.6668V25.0001C3.6143 25.0001 3.08439 24.7806 2.69369 24.3899C2.30299 23.9992 2.0835 23.4693 2.0835 22.9167V16.6667C2.0835 15.5617 2.52248 14.5019 3.30388 13.7205C4.08529 12.9391 5.14509 12.5001 6.25016 12.5001H12.8543C12.6189 11.8308 12.4991 11.1263 12.5002 10.4167C12.5002 8.75915 13.1586 7.16943 14.3307 5.99733C15.5028 4.82523 17.0926 4.16675 18.7502 4.16675C20.8335 4.16675 22.6668 5.20841 23.8127 6.75008V6.72925L25.0002 8.33342L26.1877 6.72925V6.75008C27.3335 5.20841 29.1668 4.16675 31.2502 4.16675C32.9078 4.16675 34.4975 4.82523 35.6696 5.99733C36.8417 7.16943 37.5002 8.75915 37.5002 10.4167C37.5012 11.1263 37.3814 11.8308 37.146 12.5001H43.7502C44.8552 12.5001 45.915 12.9391 46.6964 13.7205C47.4778 14.5019 47.9168 15.5617 47.9168 16.6667V22.9167C47.9168 23.4693 47.6973 23.9992 47.3066 24.3899C46.9159 24.7806 46.386 25.0001 45.8335 25.0001ZM8.3335 41.6668H22.9168V25.0001H8.3335V41.6668ZM41.6668 41.6668V25.0001H27.0835V41.6668H41.6668ZM18.7502 8.33342C18.1976 8.33342 17.6677 8.55291 17.277 8.94361C16.8863 9.33431 16.6668 9.86421 16.6668 10.4167C16.6668 10.9693 16.8863 11.4992 17.277 11.8899C17.6677 12.2806 18.1976 12.5001 18.7502 12.5001C19.3027 12.5001 19.8326 12.2806 20.2233 11.8899C20.614 11.4992 20.8335 10.9693 20.8335 10.4167C20.8335 9.86421 20.614 9.33431 20.2233 8.94361C19.8326 8.55291 19.3027 8.33342 18.7502 8.33342ZM31.2502 8.33342C30.6976 8.33342 30.1677 8.55291 29.777 8.94361C29.3863 9.33431 29.1668 9.86421 29.1668 10.4167C29.1668 10.9693 29.3863 11.4992 29.777 11.8899C30.1677 12.2806 30.6976 12.5001 31.2502 12.5001C31.8027 12.5001 32.3326 12.2806 32.7233 11.8899C33.114 11.4992 33.3335 10.9693 33.3335 10.4167C33.3335 9.86421 33.114 9.33431 32.7233 8.94361C32.3326 8.55291 31.8027 8.33342 31.2502 8.33342ZM6.25016 16.6667V20.8334H22.9168V16.6667H6.25016ZM27.0835 16.6667V20.8334H43.7502V16.6667H27.0835Z" fill="#388E3C" fill-opacity="0.54"/>
</g>
</svg>
